<svg width="48" height="43" viewBox="0 0 48 43" fill="none" xmlns="http://www.w3.org/2000/svg" class="commercial-service-icon">
<path d="M23.7851 0C27.0435 0 29.6853 2.64129 29.6853 5.89979V20.6504C27.7185 18.6836 25.7521 17.7002 23.7851 17.7002C21.8182 17.7002 19.8519 18.6836 17.885 20.6504V5.89979C17.885 2.64139 20.5266 0 23.7851 0ZM26.735 5.89979C26.735 4.27073 25.4145 2.94994 23.7851 2.94994C22.1558 2.94994 20.8353 4.27082 20.8353 5.89979V15.2443C21.7973 14.9176 22.7811 14.7502 23.7851 14.7502C24.7892 14.7502 25.7731 14.9176 26.735 15.2443V5.89979ZM46.7787 39.8255C45.1492 42.6473 41.5408 43.6144 38.7187 41.9849L25.9451 34.6099C28.6316 33.8898 30.4667 32.6782 31.4501 30.9751C32.4335 29.272 32.5654 27.0771 31.8453 24.3905L44.6189 31.7656C47.441 33.395 48.4077 37.0034 46.7787 39.8255ZM40.1941 39.4303C41.6049 40.2448 43.4091 39.7614 44.2237 38.3502C45.0386 36.9393 44.5548 35.1351 43.1439 34.3206L35.0513 29.6484C34.8532 30.6448 34.5065 31.5804 34.0046 32.4501C33.5023 33.3198 32.8652 34.088 32.1015 34.7581L40.1941 39.4303ZM0.791326 39.8255C-0.837733 37.0034 0.129045 33.395 2.95111 31.7656L15.7247 24.3905C15.0046 27.0771 15.1365 29.272 16.1199 30.9751C17.1033 32.6782 18.9384 33.8898 21.6249 34.6099L8.85128 41.9849C6.02916 43.6144 2.42076 42.6472 0.791326 39.8255ZM4.42608 34.3206C3.01521 35.1351 2.53152 36.9393 3.34633 38.3502C4.16084 39.7614 5.96506 40.2447 7.37593 39.4303L15.4685 34.7581C14.7047 34.088 14.0677 33.3198 13.5654 32.4501C13.0635 31.5804 12.7168 30.6448 12.5187 29.6484L4.42608 34.3206ZM23.7851 32.45C20.5267 32.45 17.885 29.8087 17.885 26.5502C17.885 23.2914 20.5266 20.6501 23.7851 20.6501C27.0436 20.6501 29.6853 23.2914 29.6853 26.5502C29.6853 29.8086 27.0436 32.45 23.7851 32.45ZM23.7851 29.5002C25.4146 29.5002 26.735 28.1793 26.735 26.5503C26.735 24.9209 25.4145 23.6001 23.7851 23.6001C22.1558 23.6001 20.8353 24.921 20.8353 26.5503C20.8353 28.1794 22.1558 29.5002 23.7851 29.5002Z" fill="currentColor"/>
</svg>
