<svg width="34" height="42" viewBox="0 0 34 42" fill="none" xmlns="http://www.w3.org/2000/svg" class="commercial-service-icon">
<path d="M32.3828 0.18457H1.61676C1.05114 0.18457 0.597656 0.638091 0.597656 1.20367V40.8017C0.597656 41.3618 1.05118 41.8208 1.61676 41.8208H32.3828C32.9484 41.8208 33.4019 41.3614 33.4019 40.8017V1.19867C33.4019 0.63851 32.9483 0.18457 32.3828 0.18457ZM31.3582 39.7826H2.63016V2.21757H31.3582V39.7826Z" fill="currentColor"/>
<path d="M4.52301 38.9694H29.471C30.0366 38.9694 30.4901 38.5101 30.4901 37.9389V4.04293C30.4901 3.47731 30.0366 3.02383 29.471 3.02383L4.52301 3.02344C3.95739 3.02344 3.50391 3.47696 3.50391 4.04254V37.9395C3.50977 38.511 3.96329 38.97 4.52301 38.97V38.9694ZM5.54251 5.06143H28.4525V36.9254H5.54251V5.06143Z" fill="currentColor"/>
<path d="M24.5535 7.41992H9.44452C8.8789 7.41992 8.41992 7.87344 8.41992 8.43902V13.087C8.41992 13.6526 8.8793 14.1061 9.44452 14.1061H24.5475C25.1131 14.1061 25.5666 13.6526 25.5666 13.087V8.43902C25.5666 7.8734 25.1131 7.41992 24.5529 7.41992H24.5535ZM23.5289 12.0679H10.4639V9.45272H23.5289V12.0679Z" fill="currentColor"/>
<path d="M8.99679 22.0748C8.99679 22.8259 8.38741 23.4353 7.63589 23.4353C6.88433 23.4353 6.27539 22.8259 6.27539 22.0748C6.27539 21.3232 6.88437 20.7139 7.63589 20.7139C8.38745 20.7139 8.99679 21.3232 8.99679 22.0748Z" fill="#E00734"/>
<path d="M18.0926 17.4995C18.2383 16.9561 17.9192 16.4018 17.3758 16.2507C16.8325 16.105 16.2781 16.43 16.1324 16.9675L14.0156 24.83H17.2691L15.3765 30.8554C15.2082 31.3874 15.505 31.9589 16.0429 32.1324C16.1492 32.166 16.2445 32.1773 16.3453 32.1773C16.782 32.1773 17.1851 31.9031 17.3195 31.466L20.041 22.7918H16.6699L18.0926 17.4995Z" fill="currentColor"/>
</svg>
