<svg width="62" height="42" viewBox="0 0 62 42" fill="currentColor" xmlns="http://www.w3.org/2000/svg" class="commercial-service-icon">
  <path d="M8.22117 17.412V18.4486L9.40191 18.6791H10.1221C14.7367 19.0091 19.2583 17.2674 22.4589 13.9275C25.6601 10.5872 27.2076 5.99581 26.6817 1.39938V0.247262H25.5296H25.5301C21.1381 -0.252958 16.7411 1.14274 13.4418 4.08486C10.1427 7.02645 8.25423 11.2351 8.24973 15.6553C8.22111 16.0003 8.22111 16.3473 8.24973 16.6924C8.22613 16.9314 8.21665 17.1719 8.22117 17.412ZM14.7301 6.72744C17.1313 4.3193 20.4013 2.97984 23.802 3.01199C23.8637 6.06504 22.8231 9.03774 20.8714 11.3862C18.9197 13.7347 16.1876 15.3016 13.1748 15.7993L18.4738 10.4712L16.4293 8.45519L11.1589 13.7256C11.5853 11.0759 12.8347 8.62747 14.7301 6.72744ZM36.7621 24.4394C35.6165 24.4394 34.5176 24.8945 33.7075 25.7051C32.8969 26.5152 32.4419 27.6141 32.4419 28.7597C32.4419 29.9053 32.8969 31.0042 33.7075 31.8143C34.5176 32.6244 35.6165 33.0794 36.7621 33.0794C37.9077 33.0794 39.0066 32.6244 39.8167 31.8143C40.6268 31.0042 41.0818 29.9053 41.0818 28.7597C41.0818 27.6141 40.6268 26.5152 39.8167 25.7051C39.0066 24.8945 37.9077 24.4394 36.7621 24.4394ZM36.7621 30.1996C36.1795 30.1996 35.6547 29.8485 35.4316 29.3106C35.2086 28.7727 35.3317 28.153 35.7435 27.7411C36.1554 27.3293 36.7751 27.2063 37.313 27.4293C37.8509 27.6523 38.202 28.1771 38.202 28.7597C38.202 29.1414 38.0503 29.508 37.7801 29.7777C37.5104 30.048 37.1438 30.1996 36.7621 30.1996ZM55.4821 38.8394V10.0394H32.4421V16.2029L7.61624 24.4394C6.26122 24.5002 5.01524 25.1973 4.25473 26.3203C3.49424 27.4433 3.30953 28.8591 3.75602 30.1398C4.20251 31.42 5.22803 32.414 6.52185 32.8202V38.8394H0.761719V41.7192L61.2417 41.7197V38.8394L55.4821 38.8394ZM36.7626 38.8394C34.0892 38.8394 31.5254 37.7777 29.6349 35.8873C27.7443 33.9969 26.6822 31.433 26.6822 28.7596C26.6822 26.0862 27.7444 23.5223 29.6349 21.6318C31.5253 19.7413 34.0892 18.6792 36.7626 18.6792C39.436 18.6792 41.9998 19.7414 43.8903 21.6318C45.7809 23.5223 46.8425 26.0862 46.8425 28.7596C46.8425 31.433 45.7808 33.9968 43.8903 35.8873C41.9999 37.7778 39.436 38.8394 36.7626 38.8394ZM26.1634 36.1897L11.4472 31.294H11.4477C11.9835 30.5632 12.2728 29.6803 12.2728 28.7737C12.2728 27.8677 11.9835 26.9848 11.4477 26.254L26.1639 21.3582V21.3577C24.6201 23.5279 23.7904 26.1249 23.7904 28.7883C23.7904 31.4516 24.6201 34.0486 26.1639 36.2188L26.1634 36.1897ZM7.96286 27.3198C8.54495 27.3198 9.07029 27.6704 9.29332 28.2088C9.51632 28.7467 9.39276 29.3659 8.98093 29.7777C8.5691 30.1896 7.94985 30.3131 7.41197 30.0901C6.87358 29.8671 6.52302 29.3418 6.52302 28.7597C6.52302 27.9641 7.16735 27.3198 7.96286 27.3198ZM9.40273 33.6269L25.0126 38.8396H9.40273V33.6269ZM44.7985 38.8396C47.631 36.6096 49.4014 33.2965 49.6807 29.702C49.9604 26.1075 48.7229 22.5602 46.2691 19.9195C43.8151 17.2783 40.3683 15.7847 36.7633 15.7997C36.2806 15.8203 35.8 15.8685 35.3234 15.9438V12.9198H52.6034V38.8398L44.7985 38.8396Z" />
</svg>
